/vscmnt/brussel_pixiu_data/_data_brussel/112/vsc11236/PredSimResults/SUBJ10opt3D/expIG/worker_09.mot
version=1
nRows=11
nColumns=50
inDegrees=yes
endheader
                time	         pelvis_tilt	         pelvis_list	     pelvis_rotation	           pelvis_tx	           pelvis_ty	           pelvis_tz	       hip_flexion_r	     hip_adduction_r	      hip_rotation_r	        knee_angle_r	       ankle_angle_r	         mtp_angle_r	       hip_flexion_l	     hip_adduction_l	      hip_rotation_l	        knee_angle_l	       ankle_angle_l	         mtp_angle_l	    lumbar_extension	      lumbar_bending	     lumbar_rotation	 ercspn_r/activation	 intobl_r/activation	 extobl_r/activation	    abd_r/activation	    add_r/activation	hamstrings_r/activation	bifemsh_r/activation	glut_max_r/activation	iliopsoas_r/activation	rect_fem_r/activation	  vasti_r/activation	gastroc_r/activation	 soleus_r/activation	tib_ant_r/activation	 ercspn_l/activation	 intobl_l/activation	 extobl_l/activation	    abd_l/activation	    add_l/activation	hamstrings_l/activation	bifemsh_l/activation	glut_max_l/activation	iliopsoas_l/activation	rect_fem_l/activation	  vasti_l/activation	gastroc_l/activation	 soleus_l/activation	tib_ant_l/activation	
          0.00000000	         -5.27474082	         -1.39759712	          8.10120317	          0.00000000	          0.81529904	         -0.01127722	         33.15382147	         -1.41081372	         -6.71149305	         -8.28798781	          3.96498121	          0.28440830	        -17.57431798	         -1.43984946	          1.01179935	         -6.80824532	          5.13491120	         31.28207960	         -7.21439938	          0.62879462	         -7.24930909	          0.11219443	          0.14702846	          0.00999999	          0.00999999	          0.20002231	          0.13878499	          0.27170154	          0.06879251	          0.09149331	          0.00999999	          0.00999999	          0.02073469	          0.01371958	          0.34108838	          0.12421428	          0.00999999	          0.00999999	          0.04040821	          0.02491010	          0.02728450	          0.22689396	          0.01371958	          0.39001879	          0.00999999	          0.00999999	          0.28693778	          0.24182462	          0.02204718	
          0.01027841	         -5.28508778	         -1.40491039	          8.19426477	          0.01682771	          0.81397687	         -0.01126970	         32.93910326	         -1.27011794	         -6.28233603	         -9.94332635	          3.53041154	          0.26812984	        -17.48025694	         -1.58369134	          0.71362971	         -8.96689429	          4.17930072	         32.90451456	         -7.01757478	          1.07781437	         -7.48576218	          0.09578568	          0.12552514	          0.00999999	          0.03533730	          0.17076849	          0.11935238	          0.23196443	          0.12760404	          0.07811216	          0.00999999	          0.00999999	          0.01770219	          0.01171306	          0.44895520	          0.14559182	          0.00999999	          0.00999999	          0.03449839	          0.04521357	          0.02329408	          0.19371009	          0.01171306	          0.33297746	          0.00999999	          0.00999999	          0.24497234	          0.22446961	          0.01882272	
          0.02055683	         -5.28680499	         -1.41045971	          8.23922910	          0.03375093	          0.81293702	         -0.01113439	         32.61724194	         -1.12308604	         -5.92665595	        -11.38818521	          2.93519731	          0.25519404	        -17.17907498	         -1.72819388	          0.37482560	        -11.49535824	          3.12331838	         34.27151149	         -6.82311438	          1.51725192	         -7.68720406	          0.11935132	          0.10716674	          0.00999999	          0.09787941	          0.19151344	          0.10189677	          0.19803899	          0.15419684	          0.06668804	          0.00999999	          0.00999999	          0.01511319	          0.00999999	          0.52045334	          0.16981683	          0.00999999	          0.00999999	          0.02945291	          0.03860096	          0.01988727	          0.16537945	          0.00999999	          0.28427858	          0.00999999	          0.00999999	          0.20914445	          0.20204328	          0.01606984	
          0.03083524	         -5.27959471	         -1.40844141	          8.23942365	          0.05057983	          0.81231034	         -0.01088228	         32.30610668	         -0.97251592	         -5.65147957	        -12.85957809	          2.39134925	          0.23536768	        -16.61354746	         -1.87038691	         -0.00296755	        -14.46008103	          1.97378702	         35.21263176	         -6.65081194	          1.94184874	         -7.85148933	          0.12717957	          0.09149330	          0.00999999	          0.13842304	          0.24837070	          0.08699408	          0.16907524	          0.17408715	          0.05693473	          0.00999999	          0.00999999	          0.01290285	          0.00999999	          0.54608724	          0.20987874	          0.00999999	          0.00999999	          0.02514534	          0.04252274	          0.02551899	          0.14119225	          0.00999999	          0.24270205	          0.00999999	          0.00999999	          0.17855649	          0.17249389	          0.01371958	
          0.04111365	         -5.26347488	         -1.40112374	          8.19845896	          0.06721014	          0.81219012	         -0.01052880	         32.05611560	         -0.82290272	         -5.44694833	        -14.46793559	          2.07360328	          0.21540014	        -15.74582328	         -2.01717150	         -0.42695246	        -17.90301413	          0.74564994	         35.52087112	         -6.50591344	          2.35284047	         -7.97870312	          0.13223837	          0.07811215	          0.00999999	          0.16872608	          0.29195296	          0.07427096	          0.14434752	          0.18311370	          0.04860787	          0.00999999	          0.04876025	          0.01101577	          0.00999999	          0.55035450	          0.23915171	          0.00999999	          0.00999999	          0.02146776	          0.11746160	          0.02196155	          0.12054249	          0.00999999	          0.20720620	          0.00999999	          0.00999999	          0.15244211	          0.14726618	          0.01171306	
          0.05139207	         -5.24092427	         -1.38262170	          8.11483203	          0.08358253	          0.81267584	         -0.01010355	         31.79955746	         -0.67828194	         -5.30700119	        -16.08215833	          2.01348424	          0.19484448	        -14.55067831	         -2.16569937	         -0.90838501	        -21.80942328	         -0.69623884	         35.17545548	         -6.38856069	          2.74401230	         -8.06587848	          0.12770548	          0.06668803	          0.00999999	          0.18264341	          0.31486568	          0.06754061	          0.12323629	          0.17511632	          0.04149883	          0.00999999	          0.08849950	          0.00999999	          0.00999999	          0.53283233	          0.24819271	          0.00999999	          0.00999999	          0.01832804	          0.19503127	          0.02366957	          0.10291281	          0.00999999	          0.17690172	          0.00999999	          0.00999999	          0.13014703	          0.12572809	          0.00999999	
          0.06167048	         -5.21498979	         -1.34960800	          7.98843432	          0.09965997	          0.81379499	         -0.00963446	         31.45326377	         -0.53297213	         -5.19800658	        -17.54955208	          2.23511096	          0.18048503	        -13.02935472	         -2.32075322	         -1.44769690	        -26.10089074	         -2.49539823	         34.17658966	         -6.29845144	          3.11284053	         -8.11166473	          0.11142716	          0.05693472	          0.00999999	          0.18835073	          0.32263941	          0.06696842	          0.10521264	          0.15462460	          0.03542951	          0.00999999	          0.11775448	          0.00999999	          0.00999999	          0.48103543	          0.24852012	          0.00999999	          0.00999999	          0.01564752	          0.25150600	          0.02201417	          0.08786153	          0.00999999	          0.15102935	          0.00999999	          0.00999999	          0.11111266	          0.10734001	          0.00999999	
          0.07194889	         -5.18841090	         -1.29846280	          7.82009560	          0.11540971	          0.81550146	         -0.00913448	         30.97186499	         -0.38108353	         -5.07006715	        -18.77686676	          2.71405137	          0.18310749	        -11.21174390	         -2.48759311	         -2.02287319	        -30.64267619	         -4.76488695	         32.53382990	         -6.23783139	          3.45468308	         -8.11787112	          0.09513063	          0.04860786	          0.00999999	          0.19348950	          0.31341057	          0.06893146	          0.08982500	          0.13201032	          0.03024785	          0.00999999	          0.13745524	          0.00999999	          0.00999999	          0.41068266	          0.24653251	          0.00999999	          0.00999999	          0.01335902	          0.27364794	          0.02582401	          0.07501154	          0.00999999	          0.12894089	          0.00999999	          0.00999999	          0.09486213	          0.09164123	          0.00999999	
          0.08222730	         -5.16321449	         -1.23301350	          7.61627649	          0.13079294	          0.81770515	         -0.00861735	         30.34070226	         -0.21764392	         -4.89605761	        -19.72190485	          3.40525813	          0.23378231	         -9.15093910	         -2.67023859	         -2.58185875	        -35.31453708	         -7.20957100	         29.89826816	         -6.20969656	          3.77140279	         -8.08884125	          0.08121751	          0.04149883	          0.00999999	          0.19644838	          0.26757340	          0.07214098	          0.07668784	          0.11270344	          0.02582401	          0.00999999	          0.16466865	          0.00999999	          0.00999999	          0.35061918	          0.25839403	          0.05490996	          0.00999999	          0.01140523	          0.23362617	          0.02204718	          0.06404089	          0.01174650	          0.11008292	          0.00999999	          0.00999999	          0.08098828	          0.07823845	          0.14468349	
          0.09250572	         -5.14096328	         -1.15593349	          7.38048335	          0.14577750	          0.82025548	         -0.00809666	         29.54437585	         -0.04468201	         -4.68267801	        -20.31763642	          4.12310921	          0.33461996	         -6.95196440	         -2.82332079	         -3.05151427	        -39.97087998	         -8.86961657	         26.33207712	         -6.21706982	          4.05788085	         -8.01561385	          0.06933923	          0.03542951	          0.00999999	          0.18787035	          0.22844005	          0.07538410	          0.06547203	          0.09622025	          0.02204718	          0.00999999	          0.17890518	          0.00999999	          0.00999999	          0.30213564	          0.25876838	          0.06026432	          0.00999999	          0.01171306	          0.19945769	          0.01882272	          0.07467993	          0.01002854	          0.09398299	          0.00999999	          0.00999999	          0.06914352	          0.06679586	          0.15446519	
          0.10278413	         -5.12256663	         -1.06929007	          7.11287886	          0.16038643	          0.82309260	         -0.00759792	         28.58993832	          0.13170275	         -4.44464411	        -20.57033406	          4.81757521	          0.47565255	         -4.71260084	         -2.89307075	         -3.42707587	        -44.30879312	         -9.32989326	         23.11009933	         -6.25694434	          4.31442894	         -7.89389949	          0.05919817	          0.03024784	          0.00999999	          0.17232769	          0.19503006	          0.07855157	          0.05589657	          0.08214777	          0.01882272	          0.00999999	          0.17564233	          0.00999999	          0.00999999	          0.26509155	          0.24959798	          0.05881883	          0.00999999	          0.00999999	          0.17028645	          0.01606985	          0.09265061	          0.00999999	          0.08023772	          0.00999999	          0.00999999	          0.08176570	          0.05702678	          0.19774868	
